<svg width="104" height="40" xmlns="http://www.w3.org/2000/svg">
 <defs>
  <linearGradient y2="1" x2="0.500003" y1="0" x1="0.500003" id="paint0_linear">
   <stop stop-color="#BC9CFF"/>
   <stop stop-color="#8BA4F9" offset="1"/>
  </linearGradient>
  <linearGradient y2="1" x2="0.499994" y1="0" x1="0.499994" id="paint1_linear">
   <stop stop-color="#6FCF97"/>
   <stop stop-color="#66D2EA" offset="1"/>
  </linearGradient>
  <linearGradient y2="1" x2="0.5" y1="0" x1="0.5" id="paint2_linear">
   <stop stop-color="#BC9CFF"/>
   <stop stop-color="#8BA4F9" offset="1"/>
  </linearGradient>
 </defs>
 <g>
  <title>background</title>
  <rect fill="none" id="canvas_background" height="402" width="582" y="-1" x="-1"/>
 </g>
 <g>
  <title>Layer 1</title>
  <path id="svg_1" fill="url(#paint0_linear)" d="m19.9999,27.0589c-0.6471,0 -1.1765,-0.5294 -1.1765,-1.1765c0,-4.5294 -3.7059,-8.2353 -8.2353,-8.2353c-0.64707,0 -1.17648,-0.5294 -1.17648,-1.1764c0,-0.6471 0.52941,-1.1765 1.17648,-1.1765c5.8529,0 10.5882,4.7353 10.5882,10.5882c0,0.6471 -0.5294,1.1765 -1.1764,1.1765z"/>
  <path id="svg_2" fill="url(#paint1_linear)" d="m30.5882,16.4707c0,0.647 -0.5294,1.1764 -1.1765,1.1764c-2.7941,0 -5.2941,1.4118 -6.7647,3.5589c-0.3235,-0.8236 -0.7059,-1.5883 -1.1765,-2.2942c1.9412,-2.2353 4.7941,-3.6176 7.9412,-3.6176c0.6471,0 1.1765,0.5294 1.1765,1.1765z"/>
  <path id="svg_3" fill="url(#paint2_linear)" d="m20,40c-11.02941,0 -20,-8.9706 -20,-20c0,-11.02941 8.97059,-20 20,-20c11.0294,0 20,8.97059 20,20c0,11.0294 -8.9706,20 -20,20zm0,-37.64706c-9.7353,0 -17.64706,7.91176 -17.64706,17.64706c0,9.7353 7.91176,17.6471 17.64706,17.6471c9.7353,0 17.6471,-7.9118 17.6471,-17.6471c0,-9.7353 -7.9118,-17.64706 -17.6471,-17.64706z"/>
  <path id="svg_4" fill="#1F2041" d="m59.926618,11.796861c0.2217,0 0.4025,0.07584 0.5425,0.2275c0.1517,0.14 0.2275,0.32084 0.2275,0.5425c0,0.21 -0.0758,0.39084 -0.2275,0.5425c-0.14,0.15167 -0.3208,0.2275 -0.5425,0.2275l-3.7625,0l0,10.49996c0,0.2217 -0.07583,0.4084 -0.2275,0.56c-0.14,0.14 -0.32083,0.21 -0.5425,0.21c-0.21,0 -0.39083,-0.07 -0.5425,-0.21c-0.15167,-0.1516 -0.2275,-0.3383 -0.2275,-0.56l0,-10.49996l-3.7625,0c-0.21,0 -0.39083,-0.07583 -0.5425,-0.2275c-0.15167,-0.15166 -0.2275,-0.3325 -0.2275,-0.5425c0,-0.22166 0.07583,-0.4025 0.2275,-0.5425c0.15167,-0.15166 0.3325,-0.2275 0.5425,-0.2275l9.065,0z"/>
  <path id="svg_5" fill="#1F2041" d="m66.499218,11.796861c0.8867,0 1.7209,0.16917 2.5025,0.5075c0.7933,0.33834 1.4817,0.79917 2.065,1.3825c0.595,0.58334 1.0617,1.27167 1.4,2.065c0.3383,0.78167 0.5075,1.61584 0.5075,2.5025c0,1.03834 -0.2217,1.995 -0.665,2.87c-0.4433,0.87496 -1.0441,1.60996 -1.8025,2.20496c0,0 -0.0116,0.0117 -0.035,0.035c-0.56,0.42 -1.1725,0.7525 -1.8375,0.9975c-0.665,0.2334 -1.3767,0.35 -2.135,0.35c-0.8867,0 -1.7208,-0.1691 -2.5025,-0.5075c-0.7817,-0.3383 -1.47,-0.7991 -2.065,-1.3825c-0.5833,-0.5833 -1.0442,-1.2658 -1.3825,-2.04746c-0.3383,-0.78166 -0.5075,-1.62166 -0.5075,-2.52c0,-0.98 0.1983,-1.88416 0.595,-2.7125c0.3967,-0.84 0.9392,-1.5575 1.6275,-2.1525l0.07,-0.07c0.0117,0 0.0292,-0.01166 0.0525,-0.035c0.56,-0.46666 1.19,-0.82833 1.89,-1.085c0.7,-0.26833 1.4408,-0.4025 2.2225,-0.4025zm0,11.37496c0.4433,0 0.8634,-0.0525 1.26,-0.1575c0.4084,-0.1166 0.7933,-0.2741 1.155,-0.4725l-6.1425,-7.47246c-0.3733,0.43167 -0.665,0.92167 -0.875,1.47c-0.21,0.53667 -0.315,1.10834 -0.315,1.715c0,0.67667 0.1284,1.3125 0.385,1.9075c0.2567,0.595 0.6067,1.12 1.05,1.57496c0.455,0.4434 0.98,0.7934 1.575,1.05c0.595,0.2567 1.2308,0.385 1.9075,0.385zm3.6225,-1.5925c0.4083,-0.44329 0.7234,-0.94496 0.945,-1.50496c0.2334,-0.57166 0.35,-1.17833 0.35,-1.82c0,-0.67666 -0.1283,-1.3125 -0.385,-1.9075c-0.2567,-0.595 -0.6125,-1.11416 -1.0675,-1.5575c-0.4433,-0.455 -0.9625,-0.81083 -1.5575,-1.0675c-0.595,-0.25666 -1.2308,-0.385 -1.9075,-0.385c-0.4667,0 -0.9158,0.06417 -1.3475,0.1925c-0.4317,0.11667 -0.8342,0.29167 -1.2075,0.525l6.1775,7.52496z"/>
  <path id="svg_6" fill="#1F2041" d="m79.942618,19.059361c-0.2333,0 -0.4316,-0.09333 -0.595,-0.28l-4.4975,-5.775c-0.1283,-0.16333 -0.1808,-0.34416 -0.1575,-0.5425c0.0234,-0.21 0.1167,-0.37916 0.28,-0.5075c0.1634,-0.12833 0.3442,-0.175 0.5425,-0.14c0.21,0.02334 0.3792,0.11667 0.5075,0.28l3.92,5.005l3.8325,-4.9175c0.1284,-0.16333 0.2917,-0.25666 0.49,-0.28c0.21,-0.02333 0.3967,0.02917 0.56,0.1575c0.1634,0.12834 0.2567,0.2975 0.28,0.5075c0.0234,0.19834 -0.0291,0.37917 -0.1575,0.5425l-4.41,5.67c-0.1516,0.18667 -0.35,0.28 -0.595,0.28zm4.9175,5.63496c-0.0466,0 -0.1225,-0.0058 -0.2275,-0.0175c-0.0933,-0.0116 -0.2041,-0.0408 -0.3325,-0.0875c-0.1283,-0.0583 -0.2683,-0.1341 -0.42,-0.2275c-0.14,-0.105 -0.28,-0.245 -0.42,-0.42l-3.5175,-4.53246l-3.8325,4.93496c-0.1283,0.1634 -0.2975,0.2567 -0.5075,0.28c-0.1983,0.0234 -0.3791,-0.0291 -0.5425,-0.1575c-0.1633,-0.1283 -0.2566,-0.2916 -0.28,-0.49c-0.0233,-0.21 0.0292,-0.3966 0.1575,-0.56l4.41,-5.66996c0.14,-0.18666 0.3325,-0.28 0.5775,-0.28c0.2567,0 0.4609,0.09334 0.6125,0.28l4.095,5.24996c0.0584,0.0817 0.1109,0.1342 0.1575,0.1575c0.0467,0.0234 0.0817,0.0409 0.105,0.0525c0.1984,0 0.3617,0.07 0.49,0.21c0.14,0.1284 0.2159,0.2917 0.2275,0.49c0.0234,0.21 -0.035,0.3909 -0.175,0.5425c-0.14,0.1517 -0.315,0.2334 -0.525,0.245l-0.0525,0z"/>
  <path id="svg_7" fill="#1F2041" d="m89.325918,24.694321c-0.2217,0 -0.4083,-0.0758 -0.56,-0.2275c-0.1517,-0.1516 -0.2275,-0.3383 -0.2275,-0.56l0,-11.37496c0,-0.21 0.0758,-0.39083 0.2275,-0.5425c0.1517,-0.15166 0.3383,-0.2275 0.56,-0.2275c0.21,0 0.3908,0.07584 0.5425,0.2275c0.1517,0.15167 0.2275,0.3325 0.2275,0.5425l0,11.37496c0,0.2217 -0.0758,0.4084 -0.2275,0.56c-0.1517,0.1517 -0.3325,0.2275 -0.5425,0.2275z"/>
  <path id="svg_8" fill="#1F2041" d="m102.529318,24.659321c-0.2567,0 -0.455,-0.0991 -0.595,-0.2975l-7.2975,-9.58996l0,9.13496c0,0.21 -0.0759,0.3909 -0.2275,0.5425c-0.14,0.14 -0.315,0.21 -0.525,0.21c-0.1984,0 -0.3734,-0.07 -0.525,-0.21c-0.1517,-0.1516 -0.2275,-0.3325 -0.2275,-0.5425l0,-11.35746c0,-0.16333 0.0466,-0.30916 0.14,-0.4375c0.0933,-0.12833 0.2216,-0.21583 0.385,-0.2625c0.1516,-0.05833 0.3033,-0.06416 0.455,-0.0175c0.1516,0.04667 0.28,0.13417 0.385,0.2625l7.28,9.60746l0,-9.15246c0,-0.19833 0.07,-0.37333 0.21,-0.525c0.1516,-0.15166 0.3325,-0.2275 0.5425,-0.2275c0.21,0 0.385,0.07584 0.525,0.2275c0.1516,0.15167 0.2275,0.32667 0.2275,0.525l0,11.35746c0,0.1634 -0.0467,0.3092 -0.14,0.4375c-0.0934,0.1284 -0.2159,0.2217 -0.3675,0.28c-0.1167,0.0234 -0.1984,0.035 -0.245,0.035z"/>
 </g>
</svg>